<?xml version="1.0" encoding="UTF-8" standalone="no"?>
<!-- Created with Inkscape (http://www.inkscape.org/) -->

<svg
   width="210mm"
   height="297mm"
   viewBox="0 0 210 297"
   version="1.1"
   id="svg5"
   xml:space="preserve"
   inkscape:version="1.2.2 (732a01da63, 2022-12-09)"
   sodipodi:docname="GUYYYYYYYY.svg"
   xmlns:inkscape="http://www.inkscape.org/namespaces/inkscape"
   xmlns:sodipodi="http://sodipodi.sourceforge.net/DTD/sodipodi-0.dtd"
   xmlns="http://www.w3.org/2000/svg"
   xmlns:svg="http://www.w3.org/2000/svg"><sodipodi:namedview
     id="namedview7"
     pagecolor="#ffffff"
     bordercolor="#666666"
     borderopacity="1.0"
     inkscape:showpageshadow="2"
     inkscape:pageopacity="0.0"
     inkscape:pagecheckerboard="0"
     inkscape:deskcolor="#d1d1d1"
     inkscape:document-units="mm"
     showgrid="false"
     inkscape:zoom="0.6877385"
     inkscape:cx="396.22618"
     inkscape:cy="561.25984"
     inkscape:window-width="1920"
     inkscape:window-height="1017"
     inkscape:window-x="-8"
     inkscape:window-y="-8"
     inkscape:window-maximized="1"
     inkscape:current-layer="layer1" /><defs
     id="defs2" /><g
     inkscape:label="Layer 1"
     inkscape:groupmode="layer"
     id="layer1"><g
       id="g9774"
       transform="matrix(0.9796243,0,0,0.9796243,49.293815,16.587756)"><path
         style="fill:#ffd8ae;fill-opacity:1;stroke:#000000;stroke-width:0;stroke-linecap:butt;stroke-linejoin:miter;stroke-dasharray:none;stroke-opacity:1"
         d="m 51.047725,180.5298 c -0.508556,0.65329 -0.543407,1.76696 -0.112002,2.32252 0.838103,1.07929 2.73114,0.96352 4.187262,0.59998 2.573085,-0.64238 5.567835,-2.18947 6.967019,-4.64683 0.250226,-0.43945 0.373318,-1.15653 0.03668,-1.42163 -1.541354,-1.21382 -4.213381,1.06712 -6.313054,1.66985 -1.592949,0.45726 -3.681359,0.0829 -4.765906,1.47611 z"
         id="path6278-8"
         sodipodi:nodetypes="aaaaaaa" /><path
         style="fill:#666666;fill-opacity:1;stroke:#000000;stroke-width:0;stroke-linecap:butt;stroke-linejoin:miter;stroke-dasharray:none;stroke-opacity:1"
         d="m 42.250952,141.14076 c 0,0 -1.796208,11.06906 -0.444937,16.35147 0.38297,1.49711 1.760551,2.57023 2.335924,4.00444 0.993685,2.47692 1.863996,7.78641 1.863996,7.78641 l -0.08424,12.5695 c 0,0 18.8691,-5.27541 19.021096,-5.22802 0.104136,0.0325 -0.669248,-7.80268 -1.668518,-11.56838 -1.063119,-4.00631 -2.759378,-7.83525 -4.560613,-11.56839 -1.804692,-3.7403 -4.007135,-7.28126 -6.229132,-10.78975 -0.627346,-0.99057 -2.002218,-2.89209 -2.002218,-2.89209 z"
         id="path6276"
         sodipodi:nodetypes="caaccsaaacc" /><path
         style="fill:#ffd8ae;fill-opacity:1;stroke:#000000;stroke-width:0;stroke-linecap:butt;stroke-linejoin:miter;stroke-dasharray:none;stroke-opacity:1"
         d="m 18.63894,177.60222 c -0.776769,0.25787 -1.382805,1.27032 -1.297802,2.08435 0.16514,1.58146 1.858789,2.77699 3.303495,3.44115 2.552906,1.17363 5.937617,1.79559 8.416049,0.47192 0.44323,-0.23672 0.920314,-0.81932 0.766884,-1.2978 -0.7025,-2.19081 -4.188213,-1.90763 -6.312037,-2.79224 -1.611267,-0.67112 -3.220041,-2.45732 -4.876589,-1.90738 z"
         id="path6278"
         sodipodi:nodetypes="aaaaaaa" /><path
         style="fill:#808080;fill-opacity:1;stroke:#000000;stroke-width:0;stroke-linecap:butt;stroke-linejoin:miter;stroke-dasharray:none;stroke-opacity:1"
         d="m 21.694261,139.24574 22.416581,2.75291 c 0,0 0.46381,11.72703 -0.550585,17.46134 -0.93298,5.27408 -2.884837,10.3531 -5.033896,15.259 -1.408024,3.21426 -4.691229,9.36152 -5.112555,9.20259 -5.388922,-2.0328 -9.910487,-4.24735 -9.910487,-4.24735 l -9.43856,-3.4608 c 0,0 6.47725,-8.41949 8.10143,-13.37129 1.468478,-4.4771 1.472093,-9.37226 1.258475,-14.07919 -0.146185,-3.2211 -1.730403,-9.51721 -1.730403,-9.51721 z"
         id="path6205"
         sodipodi:nodetypes="ccaasccaac" /><path
         style="fill:#ce733f;fill-opacity:1;stroke:#000000;stroke-width:0;stroke-linecap:butt;stroke-linejoin:miter;stroke-dasharray:none;stroke-opacity:1"
         d="m 21.472725,134.2635 8.376721,1.92703 10.107123,1.1405 5.466498,0.23596 5.859772,0.19664 -0.07865,3.77542 -6.48901,0.62924 -7.118246,0.31462 -8.41605,-1.33713 -7.314885,-1.69108 z"
         id="path6063"
         sodipodi:nodetypes="ccccccccccc" /><path
         style="fill:#00a15f;fill-opacity:1;stroke:#000000;stroke-width:0;stroke-linecap:butt;stroke-linejoin:miter;stroke-dasharray:none;stroke-opacity:1"
         d="m 42.630827,86.362817 c -1.322203,-0.197496 -2.695352,0.280468 -3.932732,0.786548 -1.507683,0.616632 -2.919121,1.541877 -4.090043,2.674257 -1.704556,1.648448 -2.935107,3.749451 -4.090043,5.820445 -0.77801,1.395103 -1.324618,2.909827 -1.887712,4.404663 -0.952801,2.52939 -1.714892,5.127 -2.516949,7.70815 -0.989621,3.18476 -2.053612,6.3529 -2.831568,9.59587 -0.534999,2.23019 -0.999328,4.48553 -1.258474,6.7643 -0.278726,2.45095 -0.563889,4.93943 -0.314618,7.39355 0.131086,1.29056 0.01179,2.8732 0.943854,3.77542 1.965694,1.90274 5.323436,1.28552 8.022776,1.7304 3.176759,0.52357 6.381506,0.91733 9.595868,1.10116 2.355791,0.13473 4.721499,0.10231 7.078921,0 1.20945,-0.0525 2.573718,0.29756 3.618113,-0.31462 1.367648,-0.80165 1.921984,-2.53731 2.674259,-3.93273 1.238417,-2.29718 2.310377,-4.71624 2.988879,-7.23623 1.018004,-3.78092 1.55028,-7.72539 1.573093,-11.64089 0.02247,-3.85678 -0.760733,-7.68277 -1.415785,-11.48358 -0.246325,-1.42925 -0.504801,-2.86508 -0.943856,-4.24735 -0.739976,-2.329651 -1.248816,-4.901578 -2.831569,-6.7643 -1.601578,-1.884877 -4.153637,-2.690303 -6.292371,-3.932732 -1.338906,-0.777795 -2.558603,-1.973581 -4.090043,-2.202331 z"
         id="path8787"
         sodipodi:nodetypes="aaaaaaaaaaaaaaaaaaaaaa" /><path
         style="fill:#ffd8ae;fill-opacity:1;stroke:#000000;stroke-width:0;stroke-linecap:butt;stroke-linejoin:miter;stroke-dasharray:none;stroke-opacity:1"
         d="m 52.613915,52.280209 c 3.988493,-0.570476 8.290936,-0.20705 12.013324,1.334814 1.974095,0.817697 3.734344,2.286971 5.005551,4.004443 1.851494,2.501473 3.035434,5.591655 3.44827,8.676288 0.351427,2.625795 -0.137598,5.357494 -0.889876,7.897648 -0.470864,1.589928 -1.30256,3.071246 -2.224691,4.449382 -1.256942,1.878514 -2.662901,3.732149 -4.449379,5.116784 -1.179553,0.914229 -2.614534,1.458791 -4.004442,2.002222 -1.366109,0.534127 -2.783163,0.964461 -4.226909,1.223578 -2.488363,0.446599 -5.065043,0.939431 -7.563945,0.556173 -2.484077,-0.380984 -4.903379,-1.407066 -7.007773,-2.780861 -1.701482,-1.110765 -3.224417,-2.582985 -4.338145,-4.282528 -0.620845,-0.947405 -0.867002,-2.095067 -1.22358,-3.170184 -0.521085,-1.571122 -0.941637,-3.175174 -1.334814,-4.783081 -0.684014,-2.797295 -2.720251,-5.732021 -1.779752,-8.453821 0.48995,-1.417914 2.317142,-1.906663 3.44827,-2.892097 1.583451,-1.379496 2.921639,-3.066268 4.671848,-4.226912 1.97694,-1.311 4.281049,-2.046396 6.4516,-3.00333 1.323165,-0.583346 2.572962,-1.463773 4.004443,-1.668518 z"
         id="path400"
         sodipodi:nodetypes="aaaaaaaaaaaaaaaaaaa" /><path
         style="fill:#000000;fill-opacity:1;stroke:#000000;stroke-width:0;stroke-linecap:butt;stroke-linejoin:miter;stroke-dasharray:none;stroke-opacity:1"
         d="m 68.533585,67.112019 c -0.287375,0.06184 -0.580208,0.161693 -0.813403,0.340656 -0.348599,0.267529 -0.610478,0.649517 -0.806449,1.042822 -0.282806,0.56758 -0.438842,1.204246 -0.500555,1.83537 -0.05065,0.517946 -0.03549,1.057977 0.111234,1.557282 0.133669,0.454882 0.371952,0.889585 0.682298,1.248013 0.314574,0.36331 0.708257,0.683531 1.153071,0.865441 0.389507,0.159292 0.83632,0.236203 1.251387,0.166855 0.408879,-0.06831 0.788288,-0.297647 1.112345,-0.556173 0.262566,-0.20947 0.472833,-0.487081 0.639599,-0.778642 0.147058,-0.257105 0.24204,-0.545033 0.305895,-0.834258 0.08422,-0.381484 0.09733,-0.777292 0.09733,-1.167963 0,-0.39067 -0.0095,-0.787284 -0.09733,-1.167962 -0.07485,-0.324572 -0.207969,-0.635998 -0.361514,-0.931588 -0.19258,-0.370739 -0.395607,-0.751673 -0.695214,-1.042825 -0.225489,-0.219126 -0.506717,-0.385922 -0.799498,-0.500554 -0.162516,-0.06363 -0.340487,-0.08341 -0.51446,-0.09733 -0.254194,-0.02034 -0.515435,-0.03278 -0.764735,0.02086 z"
         id="path6002-7"
         sodipodi:nodetypes="aaaaaaaaaaaaaaaaaaa" /><path
         style="fill:#845033;fill-opacity:1;stroke:#000000;stroke-width:0;stroke-linecap:butt;stroke-linejoin:miter;stroke-dasharray:none;stroke-opacity:1"
         d="m 40.271187,74.564618 c -0.06089,0.571778 -1.129546,0.341965 -1.573093,0.707893 -0.528632,0.436125 -0.974423,1.028081 -1.18459,1.680374 -0.181927,0.564645 0.294651,1.274611 -0.01663,1.779611 -0.435115,0.705901 -1.385318,1.07195 -2.211871,1.138517 -0.680687,0.05482 -1.393624,-0.23539 -1.9481,-0.634008 -0.779711,-0.560541 -1.30705,-1.444705 -1.717727,-2.312748 -0.323612,-0.684014 -0.458126,-1.451297 -0.550582,-2.202331 -0.137747,-1.118936 -0.05165,-2.25595 0,-3.38215 0.0403,-0.87883 0.08966,-1.761642 0.241553,-2.628183 0.104063,-0.593662 0.262609,-1.178913 0.456795,-1.749487 0.323768,-0.951323 0.779921,-1.852334 1.175867,-2.775951 0.300734,-0.701517 0.599809,-1.40382 0.911276,-2.100638 0.322047,-0.720486 0.622909,-1.452019 0.989933,-2.150666 0.487366,-0.927724 0.985749,-1.857965 1.605672,-2.702886 0.641613,-0.874482 1.393627,-1.66716 2.169749,-2.4248 0.777388,-0.758876 1.644324,-1.420465 2.480417,-2.114131 0.729319,-0.605081 1.396339,-1.303394 2.211875,-1.786022 0.666886,-0.394658 1.425389,-0.60976 2.150664,-0.882649 0.907933,-0.341616 1.819153,-0.680918 2.752913,-0.943856 0.698015,-0.196554 1.402847,-0.392799 2.123678,-0.471926 0.849782,-0.09328 1.709911,0.01533 2.564661,0 0.908533,-0.01629 1.816375,-0.135093 2.724286,-0.09774 0.943272,0.03881 1.872156,0.249703 2.812481,0.333703 0.869676,0.07769 1.743957,0.09253 2.614689,0.157308 0.801513,0.05963 1.607275,0.09141 2.401762,0.212928 0.642565,0.09828 1.289334,0.208203 1.90516,0.416309 1.233443,0.416816 2.473063,0.904814 3.539461,1.651749 0.546651,0.38289 1.222379,0.777016 1.415783,1.415786 0.271182,0.895657 -0.01645,1.984512 -0.550583,2.752912 -0.598027,0.860311 -1.753058,1.152589 -2.67426,1.651747 -0.866202,0.469356 -1.706434,1.074299 -2.674257,1.258474 -1.212996,0.230831 -2.49373,0.04214 -3.696769,-0.235963 -0.939262,-0.217125 -1.750562,-0.825222 -2.674257,-1.101164 -1.330239,-0.397392 -2.751394,-1.15462 -4.090043,-0.786548 -1.217647,0.334801 -1.906511,1.657284 -2.831569,2.516949 -0.93714,0.870893 -1.800795,1.819764 -2.752912,2.674258 -0.886903,0.795966 -1.763301,1.617038 -2.752913,2.280986 -0.370125,0.248323 -0.734929,0.60223 -1.17982,0.629237 -1.234439,0.07494 -2.224371,-1.363327 -3.460805,-1.33713 -1.11518,0.02363 -2.15515,0.695457 -3.067532,1.33713 -1.031619,0.725531 -2.264846,1.535854 -2.595604,2.752913 -0.338598,1.245907 0.240176,2.645699 0.8652,3.775424 0.592338,1.070645 1.667859,1.797834 2.595605,2.595602 0.469168,0.403437 1.559958,0.485873 1.494437,1.101167 z"
         id="path402"
         sodipodi:nodetypes="aaaaaaaaaaaaaaaaaaaaaaaaaaaaaaaaaaaaaaaaaaaaa" /><path
         style="fill:#4d4d4d;fill-opacity:1;stroke:#000000;stroke-width:0;stroke-linecap:butt;stroke-linejoin:miter;stroke-dasharray:none;stroke-opacity:1"
         d="m 58.85699,48.8973 -3.503884,-0.417132 -4.477189,3e-6 -2.836479,0.639598 c 0,0 -2.324172,1.30535 -3.197993,2.280308 -1.191007,1.328856 -1.838793,3.064553 -2.614009,4.671848 -0.729881,1.5133 -1.27115,3.110532 -1.910072,4.664424 -0.398948,0.970261 -0.560625,2.078125 -1.201022,2.909063 -0.581321,0.754283 -1.704043,0.965428 -2.275874,1.72693 -0.500814,0.666929 -0.792936,1.508363 -0.896624,2.335924 -0.117843,0.940532 -0.06864,1.965345 0.332546,2.824144 0.388543,0.831732 1.085203,1.562378 1.890985,2.002218 0.794698,0.43379 1.766769,0.568121 2.669628,0.500557 0.900395,-0.06738 1.775039,-0.440869 2.558394,-0.889875 0.71877,-0.411987 1.477093,-0.895226 1.890987,-1.6129 0.461425,-0.80009 0.543033,-1.802612 0.500555,-2.725246 -0.04471,-0.971098 -0.261798,-1.990572 -0.788185,-2.807852 -0.318862,-0.495073 -1.075065,-0.618012 -1.351102,-1.138178 -0.210163,-0.396032 -0.190694,-0.892029 -0.141017,-1.337609 0.121475,-1.089566 0.684489,-2.083378 1.056727,-3.114566 0.316804,-0.877622 0.580927,-1.780924 1.001109,-2.61401 0.356657,-0.707138 0.810546,-1.363774 1.279197,-2.002221 0.443856,-0.604669 0.885329,-1.225911 1.446049,-1.724133 0.480478,-0.426925 1.071181,-0.7108 1.612899,-1.056727 0.828128,-0.528821 1.650624,-1.068118 2.502776,-1.557285 0.654489,-0.375701 1.300919,-0.778012 2.002221,-1.056727 0.643705,-0.255824 1.446049,-0.500555 2.002221,-0.556173 0.556173,-0.05562 3.503886,0.111235 3.503886,0.111235 l 0.917685,0.05562 -2.085646,-0.111236 0.139041,-0.05561 z"
         id="path1301"
         sodipodi:nodetypes="ccccaaaaaaaaaaaaaaaaaaaaaasccccc" /><path
         style="fill:#7c4526;fill-opacity:1;stroke:#000000;stroke-width:0;stroke-linecap:butt;stroke-linejoin:miter;stroke-dasharray:none;stroke-opacity:1"
         d="m 49.789434,62.524145 c 0,-0.174742 1.407993,-2.357094 2.419348,-3.25361 0.447393,-0.396592 0.978562,-0.739785 1.557284,-0.889877 0.771703,-0.200141 1.605638,-0.106124 2.391542,0.02781 0.684846,0.116712 1.974411,0.667407 1.974411,0.667407 0,0 1.02892,0.611789 1.195771,0.750832 0.166852,0.139044 1.334815,0.750832 1.446049,0.889876 0.111233,0.139044 0.894395,0.776261 1.279197,1.223579 0.19958,0.232004 0.395349,0.475217 0.528362,0.750835 0.07139,0.14793 0.238323,0.341887 0.139044,0.472744 -0.210119,0.276952 -0.701591,0.05253 -1.042822,-0.0139 -0.639535,-0.124519 -1.229743,-0.436402 -1.821465,-0.70912 -0.783414,-0.361067 -1.507333,-0.840677 -2.280309,-1.223579 -0.460924,-0.228324 -0.901658,-0.530518 -1.404334,-0.639598 -0.783579,-0.170037 -1.62214,-0.171286 -2.405446,0 -0.856996,0.187399 -2.141262,0.987206 -2.391542,1.098442 -0.250278,0.111233 -1.237484,0.806449 -1.404336,0.806449 -0.166851,0 -0.180754,0.04171 -0.180754,0.04171 z"
         id="path4838"
         sodipodi:nodetypes="saaacssaaaaaaaasscs" /><path
         style="fill:#7c4526;fill-opacity:1;stroke:#000000;stroke-width:0;stroke-linecap:butt;stroke-linejoin:miter;stroke-dasharray:none;stroke-opacity:1"
         d="m 62.844525,61.78631 c 0,0 0.981554,-0.895615 1.494438,-1.317464 0.382724,-0.314792 0.764097,-0.634811 1.179819,-0.904528 0.369067,-0.239447 0.734752,-0.517099 1.160158,-0.629237 0.342313,-0.09023 0.708462,-0.0408 1.061837,-0.01966 0.237804,0.01422 0.476146,0.04312 0.707893,0.09832 0.768246,0.182975 1.561112,0.36621 2.241658,0.766884 0.471896,0.277831 0.925313,0.639063 1.219147,1.101164 0.132391,0.208207 0.212053,0.461196 0.2163,0.707893 0.0048,0.278199 -0.03016,0.599405 -0.2163,0.806209 -0.122153,0.13571 -0.328694,0.199877 -0.511254,0.196638 -0.384654,-0.0068 -0.723362,-0.269403 -1.061839,-0.452265 -0.270302,-0.146031 -0.509574,-0.343388 -0.766885,-0.511255 -0.306093,-0.199691 -0.582864,-0.459278 -0.924192,-0.589909 -0.452871,-0.173319 -0.950561,-0.231693 -1.435446,-0.235964 -0.271588,-0.0024 -0.541062,0.05914 -0.80621,0.117981 -0.400838,0.08895 -0.782653,0.249826 -1.179822,0.353946 -0.259952,0.06815 -0.525698,0.112337 -0.786545,0.176974 -0.316385,0.0784 -0.845537,0.235964 -0.943856,0.255628 -0.09832,0.01966 -0.37361,0.05899 -0.37361,0.05899 z"
         id="path5704"
         sodipodi:nodetypes="caaaaaaaaaaaaaaaaascc" /><path
         style="fill:#000000;fill-opacity:1;stroke:#000000;stroke-width:0;stroke-linecap:butt;stroke-linejoin:miter;stroke-dasharray:none;stroke-opacity:1"
         d="m 58.571911,66.163664 c -0.287375,0.06184 -0.580208,0.161693 -0.813403,0.340656 -0.348599,0.267529 -0.610478,0.649517 -0.806449,1.042822 -0.282806,0.56758 -0.438842,1.204246 -0.500555,1.83537 -0.05065,0.517946 -0.03549,1.057977 0.111234,1.557282 0.133669,0.454882 0.371952,0.889585 0.682298,1.248013 0.314574,0.36331 0.708257,0.683531 1.153071,0.865441 0.389507,0.159292 0.83632,0.236203 1.251387,0.166855 0.408879,-0.06831 0.788288,-0.297647 1.112345,-0.556173 0.262566,-0.20947 0.472833,-0.487081 0.639599,-0.778642 0.147058,-0.257105 0.24204,-0.545033 0.305895,-0.834258 0.08422,-0.381484 0.09733,-0.777292 0.09733,-1.167963 0,-0.39067 -0.0095,-0.787284 -0.09733,-1.167962 -0.07485,-0.324572 -0.207969,-0.635998 -0.361514,-0.931588 -0.19258,-0.370739 -0.395607,-0.751673 -0.695214,-1.042825 -0.225489,-0.219126 -0.506717,-0.385922 -0.799498,-0.500554 -0.162516,-0.06363 -0.340487,-0.08341 -0.51446,-0.09733 -0.254194,-0.02034 -0.515435,-0.03278 -0.764735,0.02086 z"
         id="path6002"
         sodipodi:nodetypes="aaaaaaaaaaaaaaaaaaa" /><ellipse
         style="fill:#ffffff;fill-opacity:1;stroke-width:0;stroke-dasharray:none"
         id="path7849-7"
         cx="60.564087"
         cy="71.4086"
         rx="0.67783517"
         ry="0.9454931" /><ellipse
         style="fill:#ffffff;fill-opacity:1;stroke-width:0;stroke-dasharray:none"
         id="path7849-2"
         cx="70.032143"
         cy="72.077164"
         rx="0.67783517"
         ry="0.9454931" /><path
         style="fill:#ffffff;stroke:#000000;stroke-width:0;stroke-linecap:butt;stroke-linejoin:miter;stroke-dasharray:none;stroke-opacity:1"
         d="m 43.12057,86.640424 c -0.735308,0.0903 -1.065113,1.103518 -1.291053,1.809057 -0.231885,0.724106 -0.103141,1.527686 0,2.280986 0.158777,1.159641 0.504453,2.297298 0.943856,3.38215 0.64963,1.603884 1.537552,3.109133 2.477622,4.561969 0.752056,1.162268 2.516949,3.303494 2.516949,3.303494 l 3.460803,3.93273 1.376458,-3.34282 c 0,0 0.395371,-1.77747 0.550582,-2.674258 0.144487,-0.834826 0.265952,-1.674292 0.353946,-2.516948 0.09962,-0.95402 0.207318,-1.911748 0.196636,-2.870896 -0.01129,-1.013501 0.639097,-2.590932 -0.275291,-3.028204 -0.767533,-0.367044 -1.318857,1.139933 -2.123676,1.415786 -0.850002,0.291339 -1.793356,0.272269 -2.688572,0.194999 -0.749606,-0.0647 -1.54235,-0.163672 -2.189992,-0.546629 -0.337367,-0.199488 -0.502387,-0.606479 -0.799224,-0.862409 -0.74117,-0.639028 -1.925853,-0.814303 -2.423642,-1.656857 -0.359312,-0.608169 -0.216136,-1.403095 -0.203385,-2.109361 0.0075,-0.414707 0.312499,-0.84616 0.164057,-1.233462 -0.0072,-0.01885 -0.02603,-0.04179 -0.04607,-0.03933 z"
         id="path8996"
         sodipodi:nodetypes="aaaaacccaaaaaaaaaaaa" /><path
         style="fill:#008d4b;fill-opacity:1;stroke:#000000;stroke-width:0;stroke-linecap:butt;stroke-linejoin:miter;stroke-dasharray:none;stroke-opacity:1"
         d="m 48.905825,87.85139 -1.307553,-1.675263 -3.141826,-0.771897 -1.114576,0.05667 -1.110115,0.277029 -0.939728,0.335644 -0.951257,0.220529 -0.358566,-0.174091 -0.308843,-0.04838 0.597573,2.625958 1.182179,3.269469 -0.679361,1.962771 -0.432982,1.930435 c -1.136123,5.065366 11.012212,11.012216 11.012212,11.012216 0,0 7.415839,-11.683295 6.785306,-12.013325 l -2.719043,-1.502706 -1.174166,-2.61297 -0.446636,0.418946 -0.22077,0.693397 -0.556172,8.676288 c -0.130025,2.02839 -1.557282,5.89543 -1.557282,5.89543 0,0 -5.711878,-6.37061 -7.675182,-10.122337 l -1.154569,-2.206295 -0.736416,-2.35432 -0.03091,-1.506002 0.253384,-1.497328 0.223422,-0.744392 0.33275,-0.701656 0.586714,-1.076214 0.859335,-0.703538 2.734886,1.615272 2.048196,0.720652 z"
         id="path313"
         sodipodi:nodetypes="ccccccccccccscsccccscsccccccccccc" /><path
         style="fill:#ffd8ae;fill-opacity:1;stroke:#000000;stroke-width:0;stroke-linecap:butt;stroke-linejoin:miter;stroke-dasharray:none;stroke-opacity:1"
         d="m 44.399823,83.699429 c 0,0 -0.522324,1.012302 -0.744724,1.536065 -0.213395,0.502555 -0.460465,1.001674 -0.564208,1.537711 -0.0896,0.46296 -0.07883,0.943767 -0.0434,1.413985 0.0513,0.680877 0.160497,1.364703 0.368905,2.014927 0.160937,0.502116 0.375839,0.995898 0.67271,1.43166 0.237257,0.348258 0.550482,0.642053 0.868011,0.919091 0.274739,0.239705 0.565101,0.470262 0.889714,0.636294 0.509632,0.260665 1.065796,0.437758 1.627522,0.54792 0.647204,0.126926 1.315433,0.105982 1.974727,0.123722 0.564026,0.01518 1.140754,0.102604 1.692624,-0.01484 0.661954,-0.140877 1.307008,-0.422515 1.861567,-0.810449 0.328581,-0.229854 0.542907,-0.590786 0.82927,-0.871489 0.342951,-0.336173 0.725122,-0.631156 1.063316,-0.972114 0.479902,-0.483823 0.939161,-0.989712 1.367119,-1.520035 0.310349,-0.384582 0.671232,-0.748569 0.868014,-1.201886 0.262466,-0.604629 0.813971,-1.443934 0.380477,-1.940469 -0.917476,-1.050897 -2.800985,0.467052 -4.178031,0.243687 -0.784196,-0.127201 -1.46447,-0.618794 -2.213433,-0.883742 -0.713848,-0.252526 -1.453656,-0.426373 -2.170029,-0.671643 -0.760346,-0.260325 -1.509851,-0.551888 -2.256832,-0.848391 -0.269639,-0.107029 -0.80291,-0.335823 -0.80291,-0.335823 l -0.542509,-0.05302 z"
         id="path7886"
         sodipodi:nodetypes="caaaaaaaaaaaaaaaaaaaaccc" /><path
         style="fill:#6d5d54;fill-opacity:1;stroke:#000000;stroke-width:0;stroke-linecap:butt;stroke-linejoin:miter;stroke-dasharray:none;stroke-opacity:1"
         d="m 34.450741,87.699946 c -1.567544,-1.64285 -3.403751,-3.152649 -5.505826,-4.011387 -1.668182,-0.681484 -3.546507,-0.791056 -5.348515,-0.786548 -2.439837,0.0061 -5.098353,-0.07456 -7.236229,1.101166 -1.644638,0.904469 -2.700674,2.656535 -3.696769,4.247351 -1.633347,2.608541 -2.7706547,5.535969 -3.6181161,8.494705 -0.8403281,2.933831 -1.2112543,6.000347 -1.415783,9.045287 -0.2495662,3.71545 -0.1927449,7.4699 0.235963,11.16896 0.4351206,3.75439 0.4334578,7.83845 2.3596421,11.09031 1.26958,2.14335 3.266632,4.19645 5.663133,4.87659 1.845239,0.52369 4.778096,0.78683 5.682802,-0.90452 0.422907,-0.79063 -0.21258,-1.68615 0.157307,-2.94956 0.625599,-2.13684 8.027699,-2.68443 11.562236,-4.93558 2.004517,-1.27667 3.886611,-2.85486 5.309189,-4.75861 0.694979,-0.93004 1.69859,-2.00325 1.494439,-3.14618 -0.281995,-1.57876 -2.219032,-4.40096 -3.441142,-3.36249 -1.78312,1.51518 -3.913996,6.03932 -6.7643,8.10143 -2.29294,1.65888 -8.038148,3.78358 -7.892456,3.12956 0.695306,-3.12128 1.637828,-6.6841 2.539988,-10.00428 1.063571,-3.91421 1.727219,-7.98639 3.386103,-11.68778 1.226426,-2.73647 2.361555,-8.870456 4.783858,-7.618804 2.104065,1.087211 3.325521,1.792902 4.974908,2.713586 1.81719,1.01435 4.006109,4.621778 5.421583,3.096158 2.581742,-2.782642 -4.264705,-6.280729 -6.371029,-9.438558 -0.766668,-1.149399 -1.327206,-2.461205 -2.280986,-3.460806 z"
         id="path2352"
         sodipodi:nodetypes="aaaaaaaaaassaaasasaasaaaa" /><path
         style="fill:#eebf9a;fill-opacity:1;stroke:#000000;stroke-width:0;stroke-linecap:butt;stroke-linejoin:miter;stroke-dasharray:none;stroke-opacity:1"
         d="m 84.019696,101.65672 1.494439,2.94955 4.247352,-2.59561 0.904528,-2.00569 -4.286679,0.82587 z"
         id="path5785" /><path
         style="fill:#008d4b;fill-opacity:1;stroke:#000000;stroke-width:0;stroke-linecap:butt;stroke-linejoin:miter;stroke-dasharray:none;stroke-opacity:1"
         d="m 56.242742,100.84993 c 0,0 2.882033,2.46866 4.443988,3.53945 1.841428,1.26239 3.62841,2.79027 5.781117,3.38215 1.731732,0.47614 3.624036,0.3778 5.387845,0.0393 2.390718,-0.45881 6.764301,-2.75291 6.764301,-2.75291 0,0 -0.157618,-0.83916 0.03933,-1.17982 0.733735,-1.26916 2.334016,-1.89217 3.736097,-2.32032 0.677492,-0.20689 1.487741,-0.39066 2.123676,-0.0786 1.17243,0.57533 2.280985,3.18551 2.280985,3.18551 l -3.185514,2.83157 -3.618113,0.94386 -1.651751,-2.94955 1.612423,2.91022 -4.758608,2.51695 c 0,0 -4.247351,2.28099 -4.601297,2.28099 -0.353947,0 -5.781117,1.76972 -5.781117,1.76972 l -7.000266,-1.06183 z"
         id="path5714"
         sodipodi:nodetypes="caaacaaaccccccsccc" /><path
         style="fill:#03b573;fill-opacity:1;stroke:#000000;stroke-width:0;stroke-linecap:butt;stroke-linejoin:miter;stroke-dasharray:none;stroke-opacity:1"
         d="m 36.333167,97.889623 c -1.25518,0.420347 -2.666027,1.167612 -3.170185,2.391537 -0.891732,2.16482 0.180511,4.75939 1.001112,6.95216 0.850713,2.27324 2.350697,4.29106 3.948824,6.11789 2.519557,2.88012 5.391468,5.58598 8.731906,7.45272 3.945892,2.20509 8.398555,3.79629 12.903203,4.17129 3.921832,0.32648 7.93149,-0.52461 11.679621,-1.72414 3.411391,-1.09176 9.566165,-4.89431 9.566165,-4.89431 l -3.83759,-9.12123 -3.781972,1.77975 c 0,0 -5.576016,2.89438 -8.620673,3.05895 -3.367618,0.18203 -6.92087,-0.65432 -9.844251,-2.33593 -4.433121,-2.55006 -6.469729,-8.06314 -10.567278,-11.12344 -1.600954,-1.195692 -3.396447,-2.258093 -5.339255,-2.725247 -0.865215,-0.208043 -1.825812,-0.282585 -2.669627,0 z"
         id="path2354"
         sodipodi:nodetypes="aaaaaaacccaaaaa" /><path
         style="fill:#999999;fill-opacity:1;stroke:#000000;stroke-width:0;stroke-linecap:butt;stroke-linejoin:miter;stroke-dasharray:none;stroke-opacity:1"
         d="m 90.517065,112.12437 7.202434,-2.14126 7.397101,-17.880955 -10.984414,2.864289 -2.697436,5.867626 c 0,0 -1.835369,8.12012 -1.890986,8.31478 -0.05562,0.19466 0.973301,2.97552 0.973301,2.97552 z"
         id="path2952" /><path
         style="fill:#ffd8ae;fill-opacity:1;stroke:#000000;stroke-width:0;stroke-linecap:butt;stroke-linejoin:miter;stroke-dasharray:none;stroke-opacity:1"
         d="m 82.454314,106.93614 c 0,0 1.7319,-1.8666 2.753054,-2.61401 1.23873,-0.90666 2.64177,-1.57427 4.03225,-2.22469 0.972964,-0.45512 2.014112,-0.74935 3.003331,-1.16796 0.676121,-0.28612 1.268376,-0.939466 2.002221,-0.91768 0.650762,0.0193 1.260401,0.46072 1.724135,0.91768 0.588075,0.57949 1.064625,1.35394 1.195771,2.16907 0.160279,0.99621 -0.232489,2.01984 -0.556173,2.97553 -0.283255,0.83633 -0.685927,1.6428 -1.195771,2.36373 -1.16975,1.65404 -2.595666,3.15555 -4.199102,4.39376 -1.13303,0.87495 -3.754164,2.08565 -3.754164,2.08565 l -1.473857,0.0556 -3.476078,-5.11679 -2.308115,-2.80867 z"
         id="path2496"
         sodipodi:nodetypes="caaaaaaaaaccccc" /><path
         style="fill:#26d388;fill-opacity:1;stroke:#000000;stroke-width:0;stroke-linecap:butt;stroke-linejoin:miter;stroke-dasharray:none;stroke-opacity:1"
         d="m 83.905501,107.09331 c -0.519652,-0.62617 -1.008845,-1.48519 -1.80756,-1.6407 -0.843434,-0.16422 -1.673954,0.4624 -2.419351,0.88987 -1.062522,0.60933 -2.401061,1.19109 -2.836479,2.33593 -0.320178,0.84184 0.135914,1.81398 0.417129,2.66962 0.55146,1.67791 1.577295,3.16251 2.447161,4.69966 0.497973,0.87997 0.722279,2.05905 1.58509,2.5862 0.729828,0.4459 1.727158,0.39596 2.558393,0.19466 1.152673,-0.27915 2.303926,-0.92629 3.03114,-1.86317 0.42248,-0.54429 0.603292,-1.28546 0.61179,-1.97442 0.0063,-0.51054 -0.23859,-0.9955 -0.41713,-1.47385 -0.290008,-0.77699 -0.706831,-1.50057 -1.056727,-2.2525 -0.279966,-0.60165 -0.544777,-1.21043 -0.834259,-1.80756 -0.267647,-0.55209 -0.534191,-1.10555 -0.834259,-1.64071 -0.138402,-0.24683 -0.264217,-0.50526 -0.444938,-0.72303 z"
         id="path2356"
         sodipodi:nodetypes="aaaaaaaaaaaaaaa" /><path
         style="fill:#eebf9a;fill-opacity:1;stroke:#000000;stroke-width:0;stroke-linecap:butt;stroke-linejoin:miter;stroke-dasharray:none;stroke-opacity:1"
         d="m 44.583795,85.73198 c 0.643385,0.08223 1.278271,0.22133 1.915595,0.341851 1.050498,0.198655 2.092996,0.438914 3.145187,0.628394 0.771322,0.138902 1.543456,0.278176 2.321475,0.372602 0.994892,0.120749 2.074539,-0.145712 2.996375,0.247495 0.361739,0.154297 0.902819,0.38863 0.883916,0.781448 -0.04277,0.888715 -1.367924,1.163066 -2.160301,1.567767 -0.981113,0.501096 -2.042274,0.944853 -3.140722,1.029071 -0.786963,0.06034 -1.588163,-0.133867 -2.336207,-0.385625 -0.894983,-0.301212 -1.769591,-0.730504 -2.505293,-1.322505 -0.59869,-0.481751 -1.149061,-1.071337 -1.487492,-1.761249 -0.23325,-0.475495 -0.68118,-1.155127 -0.332418,-1.553707 0.154091,-0.176101 0.467773,0.02479 0.699885,0.05446 z"
         id="path8647"
         sodipodi:nodetypes="aaaaaaaaaaaaa" /><path
         style="fill:#666666;fill-opacity:1;stroke:#000000;stroke-width:0;stroke-linecap:butt;stroke-linejoin:miter;stroke-dasharray:none;stroke-opacity:1"
         d="m 89.037077,102.23139 c -0.07865,0.0393 3.775424,-7.845797 3.952397,-7.944116 0.176973,-0.09832 12.270126,-3.657441 12.270126,-3.657441 l -0.11797,1.533765 -11.444255,3.873744 -2.654594,5.840108 z"
         id="path3023"
         sodipodi:nodetypes="csccccc" /><path
         style="fill:#ffffff;fill-opacity:1;stroke:#000000;stroke-width:0;stroke-linecap:butt;stroke-linejoin:miter;stroke-dasharray:none;stroke-opacity:1"
         d="m 53.817702,108.72463 2.697438,0.0834 c 0,0 0.396494,-3.05958 -0.25028,-4.36595 -0.303348,-0.61271 -0.891108,-1.48858 -1.557282,-1.33482 -0.659404,0.1522 -0.661835,1.20207 -0.80645,1.86318 -0.26748,1.22279 -0.08343,3.75419 -0.08343,3.75419 z"
         id="path5305"
         sodipodi:nodetypes="ccaaac" /><path
         style="fill:#ececec;fill-opacity:1;stroke:#000000;stroke-width:0;stroke-linecap:butt;stroke-linejoin:miter;stroke-dasharray:none;stroke-opacity:1"
         d="m 37.132173,135.82542 c -1.345784,0.2654 -2.707521,1.28586 -3.224839,2.55628 -0.331445,0.81395 -0.01258,1.80776 0.334282,2.61527 0.253728,0.59069 0.645241,1.20474 1.219147,1.49444 0.9666,0.48793 2.225814,0.52428 3.244504,0.15731 0.576176,-0.20756 1.013331,-0.73177 1.356793,-1.23881 0.365276,-0.53925 0.625525,-1.18044 0.688229,-1.82873 0.05311,-0.54915 0.0061,-1.15752 -0.275293,-1.63208 -0.502264,-0.84706 -1.444176,-1.37909 -2.320311,-1.82872 -0.3156,-0.16197 -0.67448,-0.3636 -1.022512,-0.29496 z"
         id="path6134"
         sodipodi:nodetypes="aaaaaaaaaa" /><g
         id="g6688"
         transform="translate(-43.826389,-14.905422)"><path
           style="fill:#af939d;fill-opacity:1;stroke:#000000;stroke-width:0;stroke-linecap:butt;stroke-linejoin:miter;stroke-dasharray:none;stroke-opacity:1"
           d="m 54.950435,202.51028 c 0,0 -1.178471,2.57699 -0.786548,3.81475 0.358341,1.1317 1.570496,1.8397 2.595605,2.4383 1.707883,0.99729 5.663136,1.76973 5.663136,1.76973 0,0 5.536917,1.52965 8.298066,2.32031 1.523404,0.43623 2.992259,1.12019 4.56197,1.33713 3.727095,0.51509 8.005664,1.72315 11.286945,-0.11798 0.539267,-0.30258 1.222438,-1.0029 0.983183,-1.5731 -3.14799,-7.50233 -23.793036,-5.11255 -23.832361,-5.26986 -0.03933,-0.15731 -8.769996,-4.71928 -8.769996,-4.71928 z"
           id="path6536"
           sodipodi:nodetypes="caacaaaasc" /><path
           style="fill:#4d4d4d;fill-opacity:1;stroke:#000000;stroke-width:0;stroke-linecap:butt;stroke-linejoin:miter;stroke-dasharray:none;stroke-opacity:1"
           d="m 59.690801,193.92384 c -1.672286,0.27333 -2.288907,2.55066 -3.058949,4.06006 -0.890099,1.74473 -2.027831,3.68237 -1.724136,5.61734 0.150714,0.96027 0.898236,1.79867 1.668518,2.39154 2.440052,1.87804 8.676291,3.17019 8.676291,3.17019 l 11.624003,3.39265 c 0,0 5.203889,1.63551 7.786415,1.16796 1.314728,-0.23802 3.052422,-0.68909 3.503887,-1.9466 0.18845,-0.52491 -0.300724,-1.09437 -0.61179,-1.55728 -0.928837,-1.38223 -2.399164,-2.3104 -3.615121,-3.44827 -2.241844,-2.09787 -6.785303,-6.22913 -6.785303,-6.22913 l -4.067965,-2.3955 -3.662832,0.28204 c 0,0 -3.565708,0.17703 -5.116788,-0.55617 -1.125974,-0.53225 -1.707487,-1.82319 -2.669627,-2.61401 -0.607804,-0.49958 -1.17014,-1.46173 -1.946603,-1.33482 z"
           id="path6534"
           sodipodi:nodetypes="aaaaccaaaacccaaa" /></g><path
         style="fill:#c83737;fill-opacity:1;stroke:#000000;stroke-width:0;stroke-linecap:butt;stroke-linejoin:miter;stroke-dasharray:none;stroke-opacity:1"
         d="m 22.359693,185.10936 -2.472541,1.03474 -0.993633,0.81992 c 0,0 -0.387246,0.89078 -0.397872,1.09104 -0.01064,0.20025 0.03556,0.92872 0.264064,1.13396 0.228542,0.20522 0.961936,0.48191 1.466873,0.66379 0.800672,0.28847 1.629223,0.50171 2.462882,0.67288 1.060615,0.21778 2.14086,0.33034 3.217203,0.44788 2.174058,0.2374 6.379035,0.50285 6.540364,0.51916 0.161302,0.0163 2.653116,0.0716 2.653116,0.0716 l -3.50031,-0.84271 c 0,0 -3.019329,-0.72937 -4.529827,-1.09058 -1.158921,-0.27714 -2.330663,-0.50446 -3.478033,-0.82609 -0.471361,-0.13213 -1.037129,-0.12097 -1.397061,-0.45277 -0.427806,-0.39437 -0.694126,-1.02993 -0.6712,-1.61133 0.02407,-0.61061 0.835993,-1.63155 0.835993,-1.63155 z"
         id="path7445-1"
         sodipodi:nodetypes="cccscaaasccaaaac" /><path
         style="fill:#af939d;fill-opacity:1;stroke:#000000;stroke-width:0;stroke-linecap:butt;stroke-linejoin:miter;stroke-dasharray:none;stroke-opacity:1"
         d="m 49.374043,192.12432 c 0,0 0.400084,2.80528 1.398457,3.63528 0.912826,0.75889 2.315366,0.70003 3.501402,0.65012 1.97599,-0.0831 5.721901,-1.56936 5.721901,-1.56936 0,0 5.486005,-1.70324 8.23681,-2.52917 1.517697,-0.45569 3.123289,-0.67342 4.561516,-1.33868 3.414896,-1.57957 7.668191,-2.8738 9.435262,-6.19555 0.290413,-0.54591 0.487109,-1.50429 -0.02222,-1.85494 -6.701448,-4.61361 -22.785363,8.54833 -22.903424,8.43718 -0.118065,-0.11115 -9.929704,0.76512 -9.929704,0.76512 z"
         id="path6536-1"
         sodipodi:nodetypes="caacaaaasc" /><path
         style="fill:#4d4d4d;fill-opacity:1;stroke:#000000;stroke-width:0;stroke-linecap:butt;stroke-linejoin:miter;stroke-dasharray:none;stroke-opacity:1"
         d="m 48.725814,182.3377 c -1.25975,1.13327 -0.54867,3.38289 -0.381478,5.0691 0.193258,1.9491 0.282305,4.19431 1.583,5.65873 0.645497,0.72675 1.727438,1.0286 2.695918,1.11151 3.067885,0.26263 9.014155,-2.01821 9.014155,-2.01821 l 11.615075,-3.42309 c 0,0 5.262909,-1.43427 7.183807,-3.22262 0.977904,-0.91042 2.1967,-2.2286 1.897447,-3.53075 -0.124915,-0.54354 -0.844173,-0.75858 -1.355989,-0.98015 -1.528265,-0.6616 -3.266998,-0.64859 -4.904918,-0.94945 -3.019808,-0.55469 -9.0749,-1.57752 -9.0749,-1.57752 l -4.717409,0.18114 -2.93027,2.21572 c 0,0 -2.905249,2.07488 -4.606636,2.29559 -1.235086,0.16022 -2.421739,-0.61214 -3.658602,-0.75802 -0.781353,-0.0922 -1.774282,-0.59816 -2.3592,-0.072 z"
         id="path6534-9"
         sodipodi:nodetypes="aaaaccaaaacccaaa" /><path
         style="fill:#c83737;fill-opacity:1;stroke:#000000;stroke-width:0;stroke-linecap:butt;stroke-linejoin:miter;stroke-dasharray:none;stroke-opacity:1"
         d="m 57.515026,185.0796 -1.76899,2.01366 -0.53381,1.17244 c 0,0 0.0423,0.97039 0.12051,1.15505 0.0782,0.18466 0.43897,0.81921 0.73431,0.90355 0.29536,0.0843 1.075834,0.0116 1.609408,-0.0462 0.846108,-0.0916 1.684309,-0.26303 2.508662,-0.47452 1.048779,-0.26906 2.069095,-0.64129 3.088083,-1.00734 2.058204,-0.73938 5.954207,-2.34358 6.106367,-2.39962 0.15215,-0.056 2.41616,-1.09833 2.41616,-1.09833 l -3.51559,0.77651 c 0,0 -3.033581,0.66761 -4.5496,1.0049 -1.163158,0.25878 -2.316008,0.56796 -3.48828,0.78169 -0.481593,0.0878 -0.985244,0.34578 -1.45418,0.20528 -0.557366,-0.167 -1.075283,-0.62157 -1.30947,-1.15421 -0.245956,-0.5594 0.03642,-1.8329 0.03642,-1.8329 z"
         id="path7445"
         sodipodi:nodetypes="cccscaaasccaaaac" /></g></g></svg>
